<svg width="254" height="79" viewBox="0 0 254 79" xmlns="http://www.w3.org/2000/svg" xmlns:xlink="http://www.w3.org/1999/xlink"><title>Logo/Keno</title><defs><path d="M.57 3.593C.57.421 2.864-.877 5.67.71l62.95 35.605c2.805 1.587 2.805 4.18 0 5.767L5.67 77.686c-2.805 1.586-5.1.288-5.1-2.884V3.593" id="a"/><linearGradient x1="41.251%" y1="41.338%" x2="3.684%" y2="33.247%" id="c"><stop stop-color="#D9E025" offset="0%"/><stop stop-color="#2DB04B" offset="100%"/></linearGradient><linearGradient x1="43.97%" y1="38.786%" x2="82.526%" y2="11.595%" id="f"><stop stop-color="#28AAE1" offset="0%"/><stop stop-color="#523491" offset="100%"/></linearGradient><path d="M89.053 110.446c0 23.906-19.786 43.289-44.191 43.289S.673 134.352.673 110.446c0-23.91 19.784-43.29 44.189-43.29s44.19 19.38 44.19 43.29" id="e"/><filter x="-50%" y="-50%" width="200%" height="200%" filterUnits="objectBoundingBox" id="d"><feOffset in="SourceAlpha" result="shadowOffsetOuter1"/><feGaussianBlur stdDeviation="2" in="shadowOffsetOuter1" result="shadowBlurOuter1"/><feColorMatrix values="0 0 0 0 0 0 0 0 0 0 0 0 0 0 0 0 0 0 0.2 0" in="shadowBlurOuter1"/></filter><linearGradient x1="72.341%" y1="82.888%" x2="45.769%" y2="44.513%" id="g"><stop stop-color="#EA185B" offset="0%"/><stop stop-color="#783237" offset="100%"/></linearGradient><linearGradient x1="0%" y1="9.694%" x2="119.835%" y2="73.659%" id="j"><stop stop-color="#FBED1F" offset="0%"/><stop stop-color="#EE5525" offset="100%"/></linearGradient><path d="M103.998 41.074c0 12.93-10.697 23.41-23.896 23.41-13.199 0-23.897-10.48-23.897-23.41 0-12.927 10.698-23.41 23.897-23.41 13.199 0 23.896 10.483 23.896 23.41" id="i"/><filter x="-50%" y="-50%" width="200%" height="200%" filterUnits="objectBoundingBox" id="h"><feOffset dy="2" in="SourceAlpha" result="shadowOffsetOuter1"/><feGaussianBlur stdDeviation="2" in="shadowOffsetOuter1" result="shadowBlurOuter1"/><feColorMatrix values="0 0 0 0 0 0 0 0 0 0 0 0 0 0 0 0 0 0 0.2 0" in="shadowBlurOuter1"/></filter></defs><g fill="none" fill-rule="evenodd"><g fill="#246BB5"><path d="M233.152 21.196c-11.47 0-20.806 9.25-20.806 20.616 0 5.496 2.167 10.671 6.101 14.57a20.761 20.761 0 0 0 14.705 6.045c11.473 0 20.805-9.247 20.805-20.612 0-11.37-9.332-20.619-20.805-20.619zm10.573 20.616c-.003 5.775-4.745 10.474-10.57 10.474-2.821 0-5.474-1.091-7.472-3.071a10.354 10.354 0 0 1-3.1-7.4 10.36 10.36 0 0 1 3.1-7.404 10.551 10.551 0 0 1 7.469-3.071c5.828 0 10.567 4.7 10.573 10.472zM200.6 20.638c-2.82 0-5.118 2.274-5.118 5.07v18.42l-19.78-21.807c-.037-.043-.08-.08-.12-.119a2.168 2.168 0 0 0-.143-.145 7.173 7.173 0 0 0-.227-.203l-.168-.137a3.937 3.937 0 0 0-.226-.166c-.07-.049-.141-.091-.214-.137a2.993 2.993 0 0 0-.211-.127c-.09-.052-.181-.094-.273-.14-.061-.027-.12-.06-.18-.084a4.199 4.199 0 0 0-.343-.13 2.538 2.538 0 0 0-.138-.052 5.363 5.363 0 0 0-.394-.103c-.037-.01-.074-.025-.114-.03-.128-.028-.263-.046-.394-.064-.043-.006-.089-.016-.132-.019-.1-.012-.202-.012-.303-.018-.076 0-.153-.009-.23-.009-.164 0-.33.01-.492.024-.046.003-.088.013-.134.016-.114.018-.227.03-.34.051a3.145 3.145 0 0 0-.23.055c-.076.018-.155.033-.232.054a8.574 8.574 0 0 0-.257.088 3.479 3.479 0 0 0-.19.067c-.088.033-.171.073-.257.109-.06.03-.122.058-.18.088a6.204 6.204 0 0 0-.428.24l-.202.136c-.07.048-.138.1-.205.151a4.059 4.059 0 0 0-.169.137c-.036.03-.07.054-.104.082-.033.033-.064.07-.1.1-.031.03-.065.057-.096.088-.027.027-.052.057-.082.088l-.175.19a9.184 9.184 0 0 0-.303.382 4.457 4.457 0 0 0-.165.252c-.03.049-.064.097-.091.149a6.004 6.004 0 0 0-.166.309 4.642 4.642 0 0 0-.202.47l-.03.085a4.346 4.346 0 0 0-.116.388l-.022.079c-.03.13-.055.26-.076.39a4.803 4.803 0 0 0-.055.47c-.004.046-.004.095-.007.14 0 .064-.009.127-.009.191v31.651c.003 2.795 2.298 5.069 5.119 5.069 2.82 0 5.119-2.274 5.119-5.069v-18.42l19.78 21.806c.033.037.067.067.1.104l.181.178c.064.061.129.116.196.173.064.058.132.11.199.164l.202.145c.076.055.156.104.235.155.065.036.126.079.193.112.092.055.19.1.288.149.055.024.11.054.165.079.113.048.226.088.346.13a4.004 4.004 0 0 0 .523.155l.12.03c.13.027.265.045.4.064.043.006.083.015.122.018.153.015.306.021.462.024.025 0 .046.003.07.003h.007c.168 0 .333-.01.495-.024.053-.006.101-.015.153-.021.114-.016.227-.03.34-.052.058-.012.113-.024.171-.04.104-.024.205-.048.303-.078.058-.015.114-.037.169-.055.1-.033.202-.066.296-.106.052-.021.101-.045.15-.067.101-.042.2-.09.3-.142l.129-.07c.098-.054.199-.115.293-.176.037-.024.074-.051.114-.075.094-.067.19-.137.281-.21.034-.027.067-.054.101-.085.04-.033.083-.063.122-.097.046-.039.083-.084.126-.127a4.771 4.771 0 0 0 .352-.367l.1-.121c.071-.088.138-.179.203-.27l.091-.136a5.92 5.92 0 0 0 .169-.273c.03-.055.058-.112.088-.17.043-.085.086-.167.123-.254.036-.07.064-.146.095-.222l.082-.218c.028-.091.055-.179.08-.27.018-.064.036-.127.052-.194.021-.097.04-.194.058-.294.012-.064.021-.127.03-.191.013-.097.022-.197.031-.294l.01-.212c.002-.055.008-.106.008-.161V25.707c0-2.795-2.297-5.069-5.118-5.069M153.633 52.286h-17.155v-5.927h11.67c2.82 0 5.115-2.274 5.118-5.072 0-2.798-2.298-5.072-5.122-5.072l-11.666.003v-5.439h17.155a5.108 5.108 0 0 0 3.62-1.485 5.015 5.015 0 0 0 1.499-3.587 5.013 5.013 0 0 0-1.5-3.583 5.103 5.103 0 0 0-3.619-1.486h-22.27c-.707 0-1.38.143-1.989.4-1.839.77-3.13 2.574-3.13 4.67l-.003 31.65c.003 2.795 2.3 5.069 5.119 5.069h22.273c2.824 0 5.119-2.274 5.119-5.069a4.99 4.99 0 0 0-1.5-3.586 5.096 5.096 0 0 0-3.619-1.486M118.032 53.984l-13.236-11.851 13.236-11.851a5.014 5.014 0 0 0 1.68-3.508 5.014 5.014 0 0 0-1.313-3.656 5.16 5.16 0 0 0-3.8-1.67c-1.27 0-2.487.466-3.43 1.31L93.728 38.37c-.15.136-.288.278-.416.427v-12.49c0-2.796-2.295-5.07-5.119-5.07-2.82 0-5.115 2.274-5.115 5.072v31.648c0 2.796 2.291 5.07 5.109 5.07h.006a5.11 5.11 0 0 0 3.623-1.486 5.023 5.023 0 0 0 1.496-3.584v-12.49a1.4 1.4 0 0 0 .055.07c.064.07.134.13.202.197l.162.163.018.012v.003l17.422 15.598a5.132 5.132 0 0 0 3.423 1.307h.006a5.153 5.153 0 0 0 3.8-1.67 5.01 5.01 0 0 0 1.313-3.657 5.026 5.026 0 0 0-1.68-3.507z"/></g><g transform="translate(.043 .334)"><mask id="b" fill="#fff"><use xlink:href="#a"/></mask><use fill="#FFF" xlink:href="#a"/><g mask="url(#b)"><path d="M144.905 73.659c0 23.907-19.783 43.288-44.188 43.288s-44.189-19.38-44.189-43.288c0-23.908 19.784-43.289 44.189-43.289s44.188 19.38 44.188 43.289" fill="url(#c)" transform="translate(-35.089 -27.138)"/><g transform="translate(-35.089 -27.138)"><use fill="#000" filter="url(#d)" xlink:href="#e"/><use fill="url(#f)" xlink:href="#e"/></g><path d="M37.147 55.789c-15.676 0-28.385-12.451-28.385-27.807C8.762 12.625 21.472.175 37.147.175s28.385 12.45 28.385 27.807c0 15.356-12.71 27.807-28.385 27.807z" fill="url(#g)" transform="translate(-35.089 -27.138)"/><g transform="translate(-35.089 -27.138)"><use fill="#000" filter="url(#h)" xlink:href="#i"/><use fill="url(#j)" xlink:href="#i"/></g></g></g></g></svg>