<svg width="120" height="120" viewBox="0 0 120 120" xmlns="http://www.w3.org/2000/svg" xmlns:xlink="http://www.w3.org/1999/xlink"><title>IconKenoApp</title><defs><path id="a" d="M.279 3.978C.279.512 2.799-.906 5.877.827L74.97 39.724c3.078 1.733 3.078 4.567 0 6.3L5.877 84.92c-3.078 1.733-5.598.315-5.598-3.15V3.977"/><linearGradient x1="56.506%" y1="41.767%" x2="3.684%" y2="33.247%" id="c"><stop stop-color="#D9E025" offset="0%"/><stop stop-color="#2DB04B" offset="100%"/></linearGradient><linearGradient x1="44.7%" y1="53.851%" x2="82.526%" y2="11.595%" id="d"><stop stop-color="#28AAE1" offset="0%"/><stop stop-color="#523491" offset="100%"/></linearGradient><filter x="-50%" y="-50%" width="200%" height="200%" filterUnits="objectBoundingBox" id="e"><feOffset in="SourceAlpha" result="shadowOffsetOuter1"/><feGaussianBlur stdDeviation="2" in="shadowOffsetOuter1" result="shadowBlurOuter1"/><feColorMatrix values="0 0 0 0 0 0 0 0 0 0 0 0 0 0 0 0 0 0 0.14 0" in="shadowBlurOuter1" result="shadowMatrixOuter1"/><feMerge><feMergeNode in="shadowMatrixOuter1"/><feMergeNode in="SourceGraphic"/></feMerge></filter><linearGradient x1="89.802%" y1="83.771%" x2="45.769%" y2="44.513%" id="f"><stop stop-color="#EA185B" offset="0%"/><stop stop-color="#783237" offset="100%"/></linearGradient><linearGradient x1="0%" y1="12.932%" x2="114.817%" y2="79.272%" id="g"><stop stop-color="#FBED1F" offset="0%"/><stop stop-color="#EE5525" offset="100%"/></linearGradient><filter x="-50%" y="-50%" width="200%" height="200%" filterUnits="objectBoundingBox" id="h"><feOffset dy="2" in="SourceAlpha" result="shadowOffsetOuter1"/><feGaussianBlur stdDeviation="2" in="shadowOffsetOuter1" result="shadowBlurOuter1"/><feColorMatrix values="0 0 0 0 0 0 0 0 0 0 0 0 0 0 0 0 0 0 0.14 0" in="shadowBlurOuter1" result="shadowMatrixOuter1"/><feMerge><feMergeNode in="shadowMatrixOuter1"/><feMergeNode in="SourceGraphic"/></feMerge></filter></defs><g fill="none" fill-rule="evenodd"><rect fill="#FFF" width="120" height="120" rx="26"/><g transform="translate(24.721 16.868)"><mask id="b" fill="#fff"><use xlink:href="#a"/></mask><use xlink:href="#a"/><g mask="url(#b)"><path d="M158.99 80.388c0 26.118-21.694 47.29-48.456 47.29-26.763 0-48.458-21.172-48.458-47.29s21.695-47.29 48.458-47.29c26.762 0 48.457 21.172 48.457 47.29" fill="url(#c)" transform="translate(-39.566 -29.514)"/><path d="M97.743 120.577c0 26.116-21.698 47.291-48.46 47.291S.826 146.693.826 120.578c0-26.121 21.695-47.294 48.457-47.294s48.46 21.173 48.46 47.293" fill="url(#d)" filter="url(#e)" transform="translate(-39.566 -29.514)"/><path d="M71.95 30.488c0 16.776-13.937 30.378-31.127 30.378-17.19 0-31.127-13.602-31.127-30.378S23.633.11 40.823.11c17.19 0 31.127 13.602 31.127 30.378" fill="url(#f)" transform="translate(-39.566 -29.514)"/><path d="M114.132 44.791c0 14.125-11.731 25.574-26.205 25.574-14.473 0-26.205-11.449-26.205-25.574 0-14.123 11.732-25.574 26.205-25.574 14.474 0 26.205 11.451 26.205 25.574" fill="url(#g)" filter="url(#h)" transform="translate(-39.566 -29.514)"/></g></g></g></svg>